<svg width="21" height="21" viewBox="0 0 21 21" fill="none" xmlns="http://www.w3.org/2000/svg">
<path d="M17.2118 4.46068H16.5744V1.91085C16.5744 1.79984 16.5454 1.69075 16.4902 1.59439C16.4351 1.49803 16.3558 1.41773 16.2601 1.36145C16.1644 1.30516 16.0557 1.27484 15.9447 1.27349C15.8337 1.27213 15.7243 1.29978 15.6272 1.35371L10.1998 4.36895L4.77235 1.35371C4.67532 1.29978 4.56589 1.27213 4.45488 1.27349C4.34388 1.27484 4.23516 1.30516 4.13947 1.36145C4.04379 1.41773 3.96446 1.49803 3.90934 1.59439C3.85422 1.69075 3.82523 1.79984 3.82522 1.91085V4.46068H3.18776C2.68074 4.46123 2.19464 4.66289 1.83613 5.02141C1.47761 5.37993 1.27595 5.86603 1.27539 6.37305V8.28542C1.27595 8.79244 1.47761 9.27854 1.83613 9.63705C2.19464 9.99557 2.68074 10.1972 3.18776 10.1978H3.82522V17.2098C3.82578 17.7168 4.02744 18.2029 4.38595 18.5615C4.74447 18.92 5.23057 19.1216 5.73759 19.1222H14.662C15.169 19.1216 15.6551 18.92 16.0136 18.5615C16.3721 18.2029 16.5738 17.7168 16.5744 17.2098V10.1978H17.2118C17.7188 10.1972 18.2049 9.99557 18.5635 9.63705C18.922 9.27854 19.1236 8.79244 19.1242 8.28542V6.37305C19.1236 5.86603 18.922 5.37993 18.5635 5.02141C18.2049 4.66289 17.7188 4.46123 17.2118 4.46068ZM15.2994 4.46068H12.6599L15.2994 2.99453V4.46068ZM5.10013 2.99453L7.73965 4.46068H5.10013V2.99453ZM5.10013 17.2098V10.1978H9.56233V17.8473H5.73759C5.56859 17.8471 5.40658 17.7798 5.28708 17.6603C5.16758 17.5408 5.10035 17.3788 5.10013 17.2098ZM15.2994 17.2098C15.2992 17.3788 15.232 17.5408 15.1125 17.6603C14.993 17.7798 14.831 17.8471 14.662 17.8473H10.8372V10.1978H15.2994V17.2098ZM17.8493 8.28542C17.8491 8.45442 17.7818 8.61643 17.6623 8.73593C17.5428 8.85543 17.3808 8.92266 17.2118 8.92288H3.18776C3.01877 8.92266 2.85675 8.85543 2.73725 8.73593C2.61775 8.61643 2.55052 8.45442 2.5503 8.28542V6.37305C2.55052 6.20405 2.61775 6.04204 2.73725 5.92254C2.85675 5.80304 3.01877 5.73581 3.18776 5.73559H17.2118C17.3808 5.73581 17.5428 5.80304 17.6623 5.92254C17.7818 6.04204 17.8491 6.20405 17.8493 6.37305V8.28542Z" fill="#5E6C93"/>
</svg>
