<svg width="24" height="24" viewBox="0 0 24 24" fill="none" xmlns="http://www.w3.org/2000/svg">
<path d="M20.25 4.64844H3.75C3.35218 4.64844 2.97064 4.80647 2.68934 5.08778C2.40804 5.36908 2.25 5.75061 2.25 6.14844V16.1484C2.25 16.5463 2.40804 16.9278 2.68934 17.2091C2.97064 17.4904 3.35218 17.6484 3.75 17.6484H4.57V21.3484L8.7 17.6484H20.25C20.6478 17.6484 21.0294 17.4904 21.3107 17.2091C21.592 16.9278 21.75 16.5463 21.75 16.1484V6.14844C21.75 5.75061 21.592 5.36908 21.3107 5.08778C21.0294 4.80647 20.6478 4.64844 20.25 4.64844Z" stroke="#1C1C1F" stroke-width="0.520833" stroke-linecap="round" stroke-linejoin="round"/>
<path d="M12 12.7734C12.8975 12.7734 13.625 12.0459 13.625 11.1484C13.625 10.251 12.8975 9.52344 12 9.52344C11.1025 9.52344 10.375 10.251 10.375 11.1484C10.375 12.0459 11.1025 12.7734 12 12.7734Z" stroke="#1C1C1F" stroke-width="0.520833" stroke-linecap="round" stroke-linejoin="round"/>
<path d="M7 12.7734C7.89746 12.7734 8.625 12.0459 8.625 11.1484C8.625 10.251 7.89746 9.52344 7 9.52344C6.10254 9.52344 5.375 10.251 5.375 11.1484C5.375 12.0459 6.10254 12.7734 7 12.7734Z" stroke="#1C1C1F" stroke-width="0.520833" stroke-linecap="round" stroke-linejoin="round"/>
<path d="M17 12.7734C17.8975 12.7734 18.625 12.0459 18.625 11.1484C18.625 10.251 17.8975 9.52344 17 9.52344C16.1025 9.52344 15.375 10.251 15.375 11.1484C15.375 12.0459 16.1025 12.7734 17 12.7734Z" stroke="#1C1C1F" stroke-width="0.520833" stroke-linecap="round" stroke-linejoin="round"/>
</svg>
