<svg width="21" height="21" viewBox="0 0 21 21" fill="none" xmlns="http://www.w3.org/2000/svg">
<path d="M3.39975 16.9998H8.4994C8.4994 17.4506 8.6785 17.883 8.99729 18.2018C9.31608 18.5206 9.74845 18.6997 10.1993 18.6997C10.6501 18.6997 11.0825 18.5206 11.4013 18.2018C11.7201 17.883 11.8992 17.4506 11.8992 16.9998H16.9988C17.2242 16.9998 17.4404 16.9103 17.5998 16.7509C17.7592 16.5915 17.8488 16.3753 17.8488 16.1499C17.8488 15.9244 17.7592 15.7083 17.5998 15.5489C17.4404 15.3895 17.2242 15.2999 16.9988 15.2999V9.35032C16.9988 7.54697 16.2825 5.81748 15.0073 4.54232C13.7321 3.26716 12.0026 2.55078 10.1993 2.55078C8.39594 2.55078 6.66645 3.26716 5.39129 4.54232C4.11613 5.81748 3.39975 7.54697 3.39975 9.35032V15.2999C3.17433 15.2999 2.95814 15.3895 2.79875 15.5489C2.63935 15.7083 2.5498 15.9244 2.5498 16.1499C2.5498 16.3753 2.63935 16.5915 2.79875 16.7509C2.95814 16.9103 3.17433 16.9998 3.39975 16.9998ZM5.09963 9.35032C5.09963 7.99781 5.63692 6.70069 6.59329 5.74432C7.54966 4.78795 8.84678 4.25067 10.1993 4.25067C11.5518 4.25067 12.8489 4.78795 13.8053 5.74432C14.7617 6.70069 15.2989 7.99781 15.2989 9.35032V15.2999H5.09963V9.35032Z" fill="#2D9CDB"/>
</svg>
