<svg width="24" height="24" viewBox="0 0 24 24" fill="none" xmlns="http://www.w3.org/2000/svg">
<path fill-rule="evenodd" clip-rule="evenodd" d="M15.5279 0.758233C14.2827 0.580671 13.3896 1.61824 13.3896 2.67775V7.67775C13.3896 8.78232 14.2851 9.67775 15.3896 9.67775H20.3896C21.4492 9.67775 22.4867 8.78472 22.3092 7.53955C21.8089 4.03129 19.0361 1.25852 15.5279 0.758233ZM15.3896 2.67775C15.3889 2.6806 15.3857 2.68842 15.3745 2.69919C15.3648 2.70846 15.3474 2.72113 15.321 2.73004C15.293 2.73953 15.2655 2.74105 15.2455 2.7382C15.2937 2.74508 15.3418 2.75253 15.3896 2.76056V7.67775H20.3068C20.3149 7.72561 20.3223 7.77366 20.3292 7.8219C20.3263 7.80191 20.3279 7.77437 20.3374 7.74635C20.3463 7.72005 20.3589 7.70264 20.3682 7.69295C20.379 7.68169 20.3868 7.67866 20.3896 7.67791L20.3068 7.67775C19.8859 5.16603 17.9014 3.1815 15.3896 2.76056V2.67775Z" fill="white"/>
<path fill-rule="evenodd" clip-rule="evenodd" d="M12.3896 3.67775C12.3896 2.60641 11.4963 1.60448 10.2816 1.73854C5.27969 2.29056 1.38965 6.52919 1.38965 11.6778C1.38965 17.2006 5.8668 21.6778 11.3896 21.6778C16.5382 21.6778 20.7768 17.7877 21.3289 12.7859C21.4629 11.5711 20.461 10.6778 19.3896 10.6778H14.3896C13.2851 10.6778 12.3896 9.78232 12.3896 8.67775V3.67775ZM3.38965 11.6778C3.38965 7.59838 6.44379 4.23101 10.3896 3.73954V8.67775C10.3896 10.8869 12.1805 12.6778 14.3896 12.6778H19.3279C18.8364 16.6236 15.469 19.6778 11.3896 19.6778C6.97137 19.6778 3.38965 16.096 3.38965 11.6778Z" fill="white"/>
</svg>
