<svg width="30" height="30" viewBox="0 0 30 30" fill="none" xmlns="http://www.w3.org/2000/svg">
<path d="M13.8389 3.10424C14.1563 2.12716 15.5386 2.12716 15.8561 3.10424L17.9428 9.52654C18.0848 9.96351 18.492 10.2594 18.9515 10.2594L25.7043 10.2594C26.7316 10.2594 27.1588 11.574 26.3276 12.1779L20.8645 16.1471C20.4928 16.4171 20.3373 16.8958 20.4792 17.3328L22.566 23.7551C22.8835 24.7322 21.7651 25.5447 20.934 24.9408L15.4708 20.9716C15.0991 20.7016 14.5958 20.7016 14.2241 20.9716L8.76097 24.9408C7.92982 25.5447 6.8115 24.7322 7.12898 23.7551L9.21571 17.3328C9.35769 16.8958 9.20215 16.4171 8.83045 16.1471L3.36731 12.1779C2.53615 11.574 2.96331 10.2594 3.99068 10.2594L10.7435 10.2594C11.2029 10.2594 11.6101 9.96351 11.7521 9.52654L13.8389 3.10424Z" fill="#F1A008"/>
</svg>
