<svg width="24" height="24" viewBox="0 0 24 24" fill="none" xmlns="http://www.w3.org/2000/svg">
<path d="M20.638 14.135L20.588 13.638L20.573 13.639L20.556 13.642L20.638 14.135ZM20.638 14.135L20.688 14.633L20.705 14.631L20.721 14.628L20.638 14.135ZM16.598 19.617L16.915 19.23L16.91 19.227L16.598 19.617ZM16.598 19.617L16.281 20.004L16.286 20.008L16.598 19.617ZM7.402 19.617L7.085 19.231L7.078 19.237L7.07 19.244L7.402 19.617ZM7.402 19.617L7.719 20.005L7.727 19.998L7.734 19.992L7.402 19.617ZM3.361 9.863V9.363H3.337L3.312 9.365L3.361 9.863ZM3.361 9.863V10.363H3.386L3.411 10.36L3.361 9.863ZM14.632 3.31C14.617 3.12869 14.596 2.94792 14.569 2.768C14.5461 2.6088 14.4982 2.45422 14.427 2.31L13.538 2.769C13.548 2.789 13.565 2.829 13.582 2.933C13.601 3.043 13.615 3.186 13.638 3.409L14.632 3.31ZM14.828 4.513C14.816 4.498 14.78 4.437 14.741 4.223C14.6945 3.92001 14.6594 3.61549 14.634 3.31L13.638 3.409C13.678 3.81 13.711 4.142 13.757 4.4C13.802 4.652 13.872 4.909 14.033 5.12L14.828 4.513ZM15.292 4.705C15.2046 4.71676 15.1156 4.70519 15.0341 4.67147C14.9527 4.63775 14.8815 4.58308 14.828 4.513L14.032 5.119C14.1926 5.32958 14.4061 5.4939 14.6507 5.59524C14.8954 5.69659 15.1625 5.73135 15.425 5.696L15.292 4.705ZM16.28 3.992C15.955 4.259 15.733 4.44 15.558 4.561C15.379 4.685 15.31 4.702 15.292 4.705L15.425 5.696C15.687 5.661 15.918 5.529 16.129 5.382C16.344 5.232 16.601 5.022 16.914 4.766L16.28 3.992ZM17.132 3.431C16.972 3.482 16.837 3.563 16.709 3.654C16.585 3.742 16.444 3.858 16.28 3.992L16.914 4.766C17.087 4.624 17.199 4.533 17.289 4.469C17.3337 4.433 17.3836 4.404 17.437 4.383L17.132 3.431ZM18.185 3.483C17.8519 3.33882 17.4777 3.32035 17.132 3.431L17.437 4.383C17.552 4.34658 17.6763 4.35297 17.787 4.401L18.185 3.483ZM18.977 4.127C18.827 3.977 18.698 3.847 18.584 3.747C18.4657 3.63854 18.3311 3.54944 18.185 3.483L17.787 4.401C17.808 4.41 17.846 4.431 17.926 4.501C18.009 4.573 18.111 4.675 18.27 4.834L18.977 4.127ZM19.87 5.02L18.977 4.127L18.27 4.834L19.163 5.727L19.87 5.02ZM20.514 5.812C20.4472 5.66589 20.3578 5.53123 20.249 5.413C20.149 5.299 20.019 5.17 19.87 5.02L19.163 5.727C19.322 5.886 19.423 5.988 19.497 6.071C19.567 6.151 19.587 6.189 19.596 6.21L20.514 5.812ZM20.566 6.865C20.6767 6.51927 20.6582 6.14514 20.514 5.812L19.596 6.21C19.6437 6.3208 19.6497 6.4451 19.613 6.56L20.566 6.865ZM20.005 7.717C20.139 7.553 20.255 7.412 20.343 7.288C20.433 7.16 20.515 7.025 20.566 6.865L19.613 6.56C19.5923 6.61335 19.5637 6.66326 19.528 6.708C19.4327 6.83592 19.3337 6.96097 19.231 7.083L20.005 7.717ZM19.292 8.705C19.295 8.687 19.312 8.618 19.436 8.439C19.557 8.264 19.738 8.042 20.005 7.717L19.231 7.083C18.975 7.396 18.764 7.653 18.615 7.868C18.468 8.078 18.336 8.31 18.301 8.572L19.292 8.705ZM19.484 9.169C19.4139 9.11546 19.3592 9.04434 19.3255 8.96285C19.2918 8.88136 19.2802 8.7924 19.292 8.705L18.301 8.572C18.2658 8.8343 18.3007 9.10123 18.402 9.34571C18.5034 9.59019 18.6676 9.8035 18.878 9.964L19.484 9.169ZM20.687 9.364C20.268 9.322 19.984 9.294 19.774 9.256C19.56 9.217 19.499 9.181 19.484 9.169L18.878 9.964C19.088 10.124 19.345 10.194 19.598 10.24C19.855 10.286 20.186 10.32 20.588 10.36L20.687 9.364ZM21.687 9.57C21.5428 9.49881 21.3882 9.45089 21.229 9.428C21.079 9.403 20.897 9.385 20.687 9.364L20.587 10.359C20.811 10.382 20.954 10.396 21.064 10.415C21.1206 10.4214 21.1758 10.4362 21.228 10.459L21.687 9.57ZM22.394 10.351C22.2605 10.0138 22.0093 9.73629 21.687 9.57L21.228 10.459C21.3355 10.5143 21.4194 10.6067 21.464 10.719L22.394 10.351ZM22.499 11.366C22.499 11.155 22.499 10.972 22.489 10.82C22.4823 10.6596 22.4502 10.5013 22.394 10.351L21.464 10.719C21.472 10.74 21.484 10.782 21.491 10.887C21.4988 11.0469 21.5015 11.207 21.499 11.367L22.499 11.366ZM22.499 12.63V11.366H21.499V12.63H22.499ZM22.394 13.644C22.456 13.488 22.479 13.332 22.489 13.175C22.499 13.024 22.499 12.841 22.499 12.63H21.499C21.499 12.854 21.499 12.998 21.491 13.109C21.4905 13.166 21.4814 13.2227 21.464 13.277L22.394 13.644ZM21.687 14.426C22.0095 14.2595 22.2607 13.9816 22.394 13.644L21.464 13.277C21.4194 13.3893 21.3355 13.4817 21.228 13.537L21.687 14.426ZM20.687 14.632C20.897 14.611 21.08 14.592 21.229 14.567C21.384 14.542 21.537 14.503 21.686 14.427L21.228 13.537C21.1759 13.5598 21.1206 13.5747 21.064 13.581C20.954 13.6 20.811 13.614 20.588 13.637L20.687 14.632ZM19.485 14.827C19.5 14.815 19.561 14.778 19.775 14.74C19.985 14.702 20.269 14.673 20.687 14.632L20.588 13.637C20.187 13.677 19.855 13.709 19.597 13.756C19.345 13.801 19.089 13.871 18.878 14.031L19.485 14.827ZM19.292 15.291C19.2804 15.2035 19.2921 15.1145 19.326 15.033C19.3599 14.9515 19.4147 14.8804 19.485 14.827L18.878 14.031C18.6674 14.1916 18.5031 14.4051 18.4018 14.6497C18.3004 14.8944 18.2656 15.1615 18.301 15.424L19.292 15.291ZM20.005 16.279C19.8071 16.0449 19.6173 15.8041 19.436 15.557C19.312 15.379 19.295 15.309 19.292 15.291L18.302 15.425C18.337 15.687 18.469 15.917 18.615 16.128C18.765 16.342 18.975 16.6 19.231 16.912L20.005 16.279ZM20.566 17.131C20.5144 16.9788 20.4392 16.8357 20.343 16.707C20.2348 16.5608 20.1221 16.4181 20.005 16.279L19.231 16.912C19.373 17.086 19.464 17.197 19.528 17.288C19.5636 17.3325 19.5922 17.382 19.613 17.435L20.566 17.131ZM20.514 18.184C20.6582 17.8509 20.6767 17.4767 20.566 17.131L19.613 17.435C19.65 17.5502 19.6439 17.6749 19.596 17.786L20.514 18.184ZM19.871 18.975C20.02 18.826 20.149 18.697 20.249 18.583C20.353 18.464 20.447 18.339 20.514 18.184L19.596 17.786C19.5698 17.8368 19.5361 17.8833 19.496 17.924C19.3885 18.042 19.2774 18.1567 19.163 18.268L19.871 18.975ZM18.977 19.869L19.871 18.975L19.163 18.268L18.27 19.162L18.977 19.869ZM18.185 20.512C18.339 20.445 18.465 20.352 18.584 20.248C18.698 20.148 18.827 20.018 18.977 19.868L18.27 19.162C18.111 19.321 18.009 19.422 17.926 19.495C17.885 19.5352 17.8381 19.5689 17.787 19.595L18.185 20.512ZM17.132 20.565C17.4778 20.6753 17.852 20.6565 18.185 20.512L17.787 19.595C17.6762 19.6427 17.5519 19.6487 17.437 19.612L17.132 20.565ZM16.28 20.003C16.444 20.137 16.585 20.253 16.709 20.341C16.837 20.432 16.972 20.514 17.132 20.565L17.437 19.612C17.3836 19.5913 17.3337 19.5627 17.289 19.527C17.1611 19.4314 17.036 19.332 16.914 19.229L16.28 20.003ZM15.292 19.291C15.31 19.293 15.38 19.311 15.558 19.435C15.733 19.556 15.955 19.737 16.28 20.003L16.914 19.229C16.601 18.974 16.344 18.763 16.129 18.613C15.919 18.467 15.687 18.335 15.425 18.3L15.292 19.291ZM14.828 19.483C14.8815 19.4129 14.9527 19.3582 15.0341 19.3245C15.1156 19.2908 15.2046 19.2792 15.292 19.291L15.425 18.3C15.1628 18.2647 14.8959 18.2994 14.6514 18.4006C14.407 18.5017 14.1936 18.6658 14.033 18.876L14.828 19.483ZM14.633 20.686C14.675 20.267 14.703 19.983 14.741 19.773C14.78 19.559 14.816 19.498 14.828 19.483L14.033 18.876C13.873 19.086 13.803 19.344 13.757 19.596C13.711 19.853 13.677 20.184 13.637 20.586L14.633 20.686ZM14.427 21.686C14.504 21.536 14.542 21.383 14.568 21.228C14.594 21.078 14.612 20.896 14.633 20.686L13.637 20.586C13.6231 20.7455 13.6054 20.9046 13.582 21.063C13.5756 21.1196 13.5608 21.1749 13.538 21.227L14.427 21.686ZM13.646 22.393C13.9832 22.2595 14.2607 22.0083 14.427 21.686L13.538 21.227C13.4827 21.3345 13.3903 21.4184 13.278 21.463L13.646 22.393ZM12.631 22.498C12.842 22.498 13.025 22.498 13.177 22.488C13.333 22.478 13.49 22.455 13.646 22.393L13.278 21.463C13.2237 21.4804 13.167 21.4895 13.11 21.49C13 21.498 12.855 21.498 12.63 21.498L12.631 22.498ZM11.367 22.498H12.631L12.63 21.498H11.367V22.498ZM10.352 22.393C10.509 22.455 10.665 22.478 10.822 22.488C10.973 22.498 11.156 22.498 11.367 22.498V21.498C11.143 21.498 10.999 21.498 10.888 21.49C10.831 21.4895 10.7743 21.4804 10.72 21.463L10.352 22.393ZM9.571 21.686C9.73729 22.0083 10.0148 22.2595 10.352 22.393L10.72 21.463C10.6077 21.4184 10.5153 21.3345 10.46 21.227L9.571 21.686ZM9.365 20.686C9.386 20.896 9.405 21.079 9.429 21.228C9.455 21.383 9.494 21.536 9.571 21.686L10.46 21.227C10.4372 21.1748 10.4224 21.1196 10.416 21.063C10.3926 20.9049 10.3739 20.7462 10.36 20.587L9.365 20.686ZM9.17 19.483C9.182 19.498 9.218 19.559 9.257 19.773C9.295 19.983 9.323 20.268 9.365 20.686L10.36 20.587C10.32 20.186 10.287 19.854 10.241 19.596C10.196 19.344 10.126 19.087 9.965 18.876L9.17 19.483ZM8.706 19.291C8.7934 19.2792 8.88236 19.2908 8.96385 19.3245C9.04534 19.3582 9.11646 19.4129 9.17 19.483L9.965 18.876C9.8045 18.6656 9.59119 18.5024 9.34671 18.401C9.10223 18.2997 8.8353 18.2648 8.573 18.3L8.706 19.291ZM7.718 20.004C8.043 19.737 8.265 19.556 8.44 19.435C8.619 19.311 8.688 19.293 8.706 19.291L8.573 18.3C8.311 18.335 8.08 18.467 7.869 18.614C7.654 18.763 7.397 18.974 7.084 19.23L7.718 20.004ZM6.866 20.565C7.026 20.514 7.161 20.433 7.289 20.342C7.413 20.254 7.554 20.138 7.718 20.004L7.084 19.23C6.96197 19.3327 6.83692 19.4317 6.709 19.527C6.66427 19.5627 6.61437 19.5914 6.561 19.612L6.866 20.565ZM5.813 20.514C6.14614 20.6582 6.52027 20.6757 6.866 20.565L6.561 19.612C6.4461 19.6487 6.3218 19.6427 6.211 19.595L5.813 20.514ZM5.021 19.869C5.171 20.019 5.3 20.149 5.414 20.249C5.532 20.352 5.659 20.447 5.813 20.514L6.211 19.595C6.15986 19.5689 6.11298 19.5352 6.072 19.495C5.95407 19.3874 5.83935 19.2764 5.728 19.162L5.021 19.869ZM4.128 18.976L5.021 19.869L5.728 19.162L4.835 18.269L4.128 18.976ZM3.484 18.184C3.551 18.338 3.645 18.464 3.749 18.583C3.849 18.697 3.979 18.826 4.128 18.976L4.835 18.269C4.72028 18.1577 4.6089 18.0429 4.501 17.925C4.46082 17.884 4.4271 17.8371 4.401 17.786L3.484 18.184ZM3.432 17.131C3.32135 17.4767 3.33982 17.8509 3.484 18.184L4.401 17.786C4.35297 17.6753 4.34758 17.551 4.384 17.436L3.432 17.131ZM3.993 16.279C3.859 16.443 3.743 16.584 3.655 16.708C3.55893 16.8364 3.48367 16.9792 3.432 17.131L4.384 17.436C4.405 17.3826 4.434 17.3327 4.47 17.288C4.534 17.198 4.625 17.086 4.767 16.913L3.993 16.279ZM4.706 15.291C4.703 15.309 4.686 15.378 4.562 15.557C4.44 15.732 4.26 15.954 3.993 16.279L4.767 16.913C5.023 16.6 5.234 16.343 5.383 16.128C5.53 15.918 5.662 15.686 5.697 15.424L4.706 15.291ZM4.514 14.827C4.58408 14.8805 4.63875 14.9517 4.67247 15.0331C4.70619 15.1146 4.71776 15.2036 4.706 15.291L5.697 15.424C5.73217 15.1617 5.69732 14.8948 5.59598 14.6503C5.49464 14.4058 5.33042 14.1925 5.12 14.032L4.514 14.827ZM3.311 14.633C3.73 14.674 4.014 14.702 4.224 14.74C4.438 14.779 4.499 14.815 4.514 14.827L5.12 14.031C4.91 13.871 4.653 13.801 4.4 13.756C4.143 13.71 3.812 13.676 3.41 13.636L3.311 14.633ZM2.311 14.426C2.461 14.503 2.614 14.541 2.769 14.567C2.919 14.593 3.1 14.612 3.311 14.633L3.411 13.637C3.25147 13.6231 3.0924 13.6045 2.934 13.581C2.87744 13.5746 2.82215 13.5598 2.77 13.537L2.311 14.426ZM1.604 13.644C1.73729 13.9816 1.98848 14.2595 2.311 14.426L2.77 13.537C2.66249 13.4817 2.57865 13.3893 2.534 13.277L1.604 13.644ZM1.5 12.632C1.5 12.843 1.5 13.026 1.51 13.178C1.51647 13.3381 1.54854 13.4961 1.605 13.646L2.535 13.279C2.51762 13.2247 2.50851 13.168 2.508 13.111C2.50057 12.9511 2.4979 12.791 2.5 12.631L1.5 12.632ZM1.5 11.368V12.632H2.5V11.368H1.5ZM1.605 10.353C1.54876 10.5037 1.5167 10.6623 1.51 10.823C1.5 10.974 1.5 11.157 1.5 11.368H2.5C2.5 11.144 2.5 11 2.508 10.889C2.50848 10.832 2.51759 10.7753 2.535 10.721L1.605 10.353ZM2.312 9.572C1.98966 9.73829 1.73849 10.0158 1.605 10.353L2.535 10.721C2.57965 10.6087 2.66349 10.5163 2.771 10.461L2.312 9.572ZM3.312 9.365C3.102 9.386 2.919 9.406 2.77 9.43C2.6108 9.45289 2.45622 9.50081 2.312 9.572L2.771 10.461C2.791 10.451 2.831 10.434 2.935 10.417C3.045 10.398 3.188 10.384 3.411 10.361L3.312 9.365ZM4.515 9.171C4.5 9.183 4.439 9.219 4.225 9.258C4.015 9.296 3.731 9.323 3.312 9.365L3.411 10.361C3.812 10.321 4.145 10.288 4.402 10.242C4.655 10.197 4.912 10.127 5.122 9.966L4.515 9.171ZM4.707 8.707C4.71876 8.7944 4.70719 8.88336 4.67347 8.96485C4.63975 9.04634 4.58508 9.11746 4.515 9.171L5.122 9.966C5.33224 9.80539 5.49626 9.59202 5.59742 9.34755C5.69858 9.10308 5.73328 8.83521 5.698 8.573L4.707 8.707ZM3.994 7.718C4.261 8.044 4.442 8.266 4.564 8.441C4.688 8.62 4.704 8.689 4.707 8.707L5.698 8.573C5.663 8.311 5.531 8.081 5.384 7.87C5.235 7.655 5.024 7.398 4.768 7.085L3.994 7.718ZM3.433 6.866C3.483 7.026 3.565 7.162 3.656 7.29C3.744 7.413 3.86 7.555 3.994 7.718L4.768 7.085C4.66529 6.96264 4.56625 6.83725 4.471 6.709C4.43508 6.66462 4.40609 6.61506 4.385 6.562L3.433 6.866ZM3.485 5.814C3.34107 6.14685 3.3226 6.52058 3.433 6.866L4.385 6.562C4.34858 6.44698 4.35497 6.32267 4.403 6.212L3.485 5.814ZM4.129 5.022C3.979 5.171 3.849 5.3 3.749 5.415C3.64056 5.53328 3.55146 5.66794 3.485 5.814L4.403 6.212C4.42918 6.16122 4.46289 6.11369 4.503 6.073C4.61013 5.95465 4.72119 5.83992 4.836 5.729L4.129 5.022ZM5.022 4.128L4.129 5.022L4.836 5.729L5.729 4.835L5.022 4.128ZM5.814 3.485C5.66798 3.55153 5.53333 3.64062 5.415 3.749C5.301 3.849 5.171 3.978 5.022 4.128L5.729 4.835C5.888 4.677 5.99 4.575 6.073 4.502C6.153 4.432 6.191 4.412 6.212 4.402L5.814 3.485ZM6.867 3.432C6.52115 3.32166 6.14702 3.34049 5.814 3.485L6.212 4.402C6.32267 4.35397 6.44698 4.34858 6.562 4.385L6.867 3.432ZM7.719 3.994C7.555 3.86 7.414 3.744 7.29 3.656C7.16167 3.55953 7.01891 3.48394 6.867 3.432L6.562 4.385C6.61535 4.40569 6.66525 4.43435 6.71 4.47C6.8 4.535 6.912 4.626 7.086 4.768L7.719 3.994ZM8.707 4.707C8.689 4.704 8.62 4.687 8.441 4.563C8.19385 4.38136 7.95304 4.19225 7.719 3.994L7.086 4.768C7.398 5.024 7.656 5.235 7.87 5.384C8.08 5.53 8.312 5.662 8.574 5.698L8.707 4.707ZM9.171 4.514C9.11758 4.58426 9.04651 4.63913 8.96501 4.67303C8.88351 4.70693 8.79449 4.71865 8.707 4.707L8.574 5.698C8.83637 5.73347 9.10345 5.69786 9.34811 5.59669C9.59277 5.49552 9.8063 5.3314 9.967 5.121L9.171 4.514ZM9.366 3.312C9.324 3.73 9.296 4.015 9.258 4.224C9.219 4.438 9.183 4.499 9.171 4.514L9.967 5.121C10.127 4.911 10.197 4.654 10.242 4.401C10.288 4.144 10.322 3.813 10.362 3.411L9.366 3.312ZM9.572 2.312C9.495 2.462 9.456 2.615 9.43 2.77C9.405 2.92 9.387 3.101 9.366 3.312L10.361 3.412C10.3749 3.25247 10.3935 3.0934 10.417 2.935C10.4233 2.87843 10.4381 2.82313 10.461 2.771L9.572 2.312ZM10.354 1.605C10.0162 1.73853 9.73835 1.9891 9.572 2.312L10.461 2.771C10.5163 2.66349 10.6087 2.57965 10.721 2.535L10.354 1.605ZM11.368 1.5C11.157 1.5 10.974 1.5 10.822 1.51C10.6619 1.51647 10.5039 1.54854 10.354 1.605L10.721 2.535C10.7753 2.51759 10.832 2.50848 10.889 2.508C10.999 2.5 11.144 2.5 11.369 2.5L11.368 1.5ZM12.632 1.5H11.368V2.5H12.632V1.5ZM13.647 1.605C13.4963 1.54875 13.3377 1.51668 13.177 1.51C13.026 1.5 12.843 1.5 12.632 1.5V2.5C12.856 2.5 13 2.5 13.111 2.508C13.168 2.50881 13.2246 2.5179 13.279 2.535L13.647 1.605ZM14.428 2.312C14.2615 1.98948 13.9836 1.73829 13.646 1.605L13.279 2.535C13.3913 2.57965 13.4837 2.66349 13.539 2.771L14.428 2.312ZM15.5 11.999C15.5 12.9273 15.1313 13.8175 14.4749 14.4739C13.8185 15.1303 12.9283 15.499 12 15.499V16.499C13.1935 16.499 14.3381 16.0249 15.182 15.181C16.0259 14.3371 16.5 13.1925 16.5 11.999H15.5ZM12 8.499C12.9283 8.499 13.8185 8.86775 14.4749 9.52413C15.1313 10.1805 15.5 11.0707 15.5 11.999H16.5C16.5 10.8055 16.0259 9.66093 15.182 8.81702C14.3381 7.97311 13.1935 7.499 12 7.499V8.499ZM8.5 11.999C8.5 11.0707 8.86875 10.1805 9.52513 9.52413C10.1815 8.86775 11.0717 8.499 12 8.499V7.499C10.8065 7.499 9.66193 7.97311 8.81802 8.81702C7.97411 9.66093 7.5 10.8055 7.5 11.999H8.5ZM12 15.499C11.0717 15.499 10.1815 15.1303 9.52513 14.4739C8.86875 13.8175 8.5 12.9273 8.5 11.999H7.5C7.5 13.1925 7.97411 14.3371 8.81802 15.181C9.66193 16.0249 10.8065 16.499 12 16.499V15.499Z" fill="#5C5C66"/>
</svg>
